<svg width="442" height="294" viewBox="0 0 442 294" fill="none" xmlns="http://www.w3.org/2000/svg">
<path d="M301.58 123.39C302.583 136.949 284.909 167.734 286.441 185.289C285.018 180.788 284.369 176.754 284.981 173.774C287.755 160.275 275.344 152.764 276.216 142.582C277.089 132.401 295.618 121.619 297.631 114.99C299.242 109.687 305.08 101.735 309.324 100.112C306.447 104.475 300.46 108.242 301.58 123.39Z" fill="#3A4D37"/>
<path d="M286.441 185.289C284.909 167.734 302.583 136.949 301.58 123.39C300.46 108.242 306.447 104.475 309.324 100.112C305.08 101.735 299.242 109.687 297.631 114.99C295.618 121.619 277.089 132.401 276.216 142.582C275.344 152.764 287.755 160.275 284.981 173.774C282.762 184.574 297.114 209.226 304.827 219.762" stroke="#3A4D37" stroke-width="3"/>
<path d="M323.29 144.628C319.85 148.663 314.69 159.555 311.325 163C299.312 184.962 303.547 205.026 311.008 218.821C320.778 204.739 330.673 173.252 317.171 164.298C323.705 159.536 324.226 149.856 323.29 144.628Z" fill="#3A4D37"/>
<path d="M310.999 218.834C320.772 204.759 330.678 173.255 317.171 164.298C323.705 159.536 324.226 149.856 323.29 144.628C319.85 148.663 314.69 159.555 311.325 163C294.088 194.512 310.302 222.115 321.499 232.901" stroke="#3A4D37" stroke-width="3"/>
<path d="M180.375 160.22L180.93 160.004L181.002 159.975L181.076 159.956C183.71 159.23 186.715 157.415 189.595 155.295C192.428 153.208 195.002 150.932 196.834 149.342C199.09 147.171 202.685 146.025 206.805 145.533C210.993 145.033 215.98 145.178 221.263 145.811C231.5 147.036 243.065 150.122 252.494 154.153L253.399 154.546C257.275 156.254 260.792 158.134 263.677 160.129C266.546 162.113 268.879 164.271 270.287 166.561L267.733 168.132C266.631 166.342 264.673 164.467 261.97 162.597C259.416 160.831 256.272 159.125 252.74 157.539C245.414 160.251 236.469 163.59 227.475 164.786C218.602 165.966 209.486 165.087 201.717 159.332C201.49 159.536 201.234 159.768 200.969 160.013L200.953 160.028C197.315 163.302 192.067 163.972 188.015 163.927C185.949 163.904 184.097 163.693 182.764 163.489C182.096 163.386 181.554 163.284 181.176 163.208C180.987 163.17 180.838 163.138 180.735 163.115C180.683 163.103 180.643 163.094 180.614 163.088C180.601 163.085 180.589 163.082 180.581 163.08C180.577 163.079 180.573 163.077 180.571 163.076L180.568 163.076L180.566 163.076L180.919 161.618L180.565 163.075L175.926 161.95L180.375 160.22ZM114.852 165.643C115.636 159.604 119.16 154.403 124.341 149.99C129.518 145.578 136.415 141.894 144.103 138.876C159.356 132.888 177.925 129.443 192.946 128.196C192.947 128.195 192.95 128.193 192.952 128.191L192.955 128.196C193.075 128.186 193.195 128.175 193.314 128.165L194.718 128.057C201.681 127.55 207.826 127.529 212.418 127.969L212.227 129.961C207.561 129.513 201.152 129.553 193.824 130.132C191.317 132.497 186.916 135.568 181.522 138.776C175.909 142.114 169.157 145.642 162.207 148.737C155.261 151.83 148.091 154.502 141.645 156.116C135.528 157.647 129.917 158.263 125.751 157.261L116.551 166.478L114.473 168.56L114.852 165.643Z" fill="#3A4D37"/>
<path d="M204.495 77.7379C207.041 79.6243 225.04 94.235 218.464 123.934C220.011 125.845 221.505 127.573 222.885 129.076C208.022 118.879 192.072 108.444 177.405 99.7556C154.36 86.1032 134.495 76.7876 126.977 79.4177C110.085 85.3273 119.257 70.5226 123.791 67.6363C121.573 72.7053 114.709 81.4649 127.034 75.4366C142.44 67.9012 154.965 56.6055 177.405 99.7556C192.072 108.444 208.022 118.879 222.885 129.076C221.505 127.573 220.011 125.845 218.464 123.934C206.136 108.7 190.481 81.8558 202.635 65.195C202.336 68.5834 201.931 75.7646 204.495 77.7379Z" fill="#3A4D37"/>
<path d="M218.464 123.934C225.04 94.235 207.041 79.6243 204.495 77.7379C201.931 75.7646 202.336 68.5834 202.635 65.195C188.956 83.9462 210.503 115.596 222.885 129.076M237.847 139.555C227.699 131.974 237.083 138.817 222.885 129.076M177.405 99.7556C154.36 86.1032 134.495 76.7876 126.977 79.4177C110.085 85.3273 119.257 70.5226 123.791 67.6363C121.573 72.7053 114.709 81.4649 127.034 75.4366C142.44 67.9012 154.965 56.6055 177.405 99.7556ZM177.405 99.7556C192.072 108.444 208.022 118.879 222.885 129.076" stroke="#3A4D37" stroke-width="3"/>
<path d="M21.7292 146.319C17.2377 147.116 5 152.852 5 152.852C15.0001 138.66 86.076 120.179 104.276 123.553C103.278 124.304 100.659 126.051 99.1228 128.868C88.8713 147.661 65.2492 145.62 47.3693 146.938C34.3821 147.895 23.4075 146.021 21.7292 146.319Z" fill="#3A4D37"/>
<path d="M104.276 123.553C149.771 115.998 247.343 116.451 275.124 178.437C302.905 240.422 368.753 257.81 398.204 258.755M104.276 123.553C86.076 120.179 15.0001 138.66 5 152.852C5 152.852 17.2377 147.116 21.7292 146.319C23.4075 146.021 34.3821 147.895 47.3693 146.938C65.2492 145.62 88.8713 147.661 99.1228 128.868C100.659 126.051 103.278 124.304 104.276 123.553Z" stroke="#3A4D37" stroke-width="3"/>
<path d="M318.146 230.58C297.721 215.55 266.575 199.04 241.709 214.489" stroke="#3A4D37" stroke-width="3"/>
<path d="M268.649 166.809C257.168 149.866 249.827 123.745 266.696 106.047" stroke="#3A4D37" stroke-width="3"/>
<path d="M301.993 217.062C276.762 195.108 219.198 161.433 189.285 203.977" stroke="#3A4D37" stroke-width="3"/>
<path d="M163.641 120.709C141.022 119.821 96.0062 126.093 97.303 160.009" stroke="#3A4D37" stroke-width="3"/>
</svg>
