<svg width="469" height="266" viewBox="0 0 469 266" fill="none" xmlns="http://www.w3.org/2000/svg">
<g filter="url(#filter0_d_284_230)">
<path d="M156.529 191.06C157.605 173.47 139.138 143.155 139.789 129.574C140.516 114.403 134.432 110.792 131.443 106.505C135.728 108.018 141.771 115.815 143.519 121.075C145.703 127.65 164.506 137.947 165.642 148.102C166.779 158.257 154.566 166.089 157.69 179.511C160.189 190.249 146.482 215.265 139.045 225.998" stroke="#80A98C" stroke-width="3"/>
<path d="M132.851 225.23C122.716 211.413 111.996 180.178 125.265 170.873C118.61 166.282 117.838 156.619 118.638 151.368C122.181 155.312 127.623 166.067 131.076 169.423C149.125 200.477 133.632 228.492 122.719 239.565" stroke="#80A98C" stroke-width="3"/>
<path d="M229.161 132.831C253.194 129.894 322.112 138.658 326.563 167.12L316.71 157.75C300.877 162.744 256.921 141.111 247.808 132.272" stroke="#80A98C" stroke-width="2"/>
<path d="M188.893 160.651C203.996 165.785 225.635 173.696 240.568 160.963C240.568 160.963 241.373 161.625 242.307 162.446C248.861 168.042 261.402 164.656 261.402 164.656L260.841 164.454C254.981 163.002 247.898 156.981 244.18 153.92L244.181 153.919C233.263 143.883 181.842 158.266 173.489 172.669" stroke="#80A98C" stroke-width="3"/>
<path d="M222.891 127.961C215.547 98.4432 233.16 83.3702 235.656 81.4184C238.168 79.3792 237.577 72.211 237.19 68.8314C251.351 87.2212 230.634 119.42 218.605 133.217M203.92 144.08C213.868 136.239 204.665 143.323 218.605 133.217M263.309 102.726C285.991 88.4795 305.608 78.6514 313.192 81.0855C330.231 86.5547 320.678 71.993 316.071 69.2254C318.419 74.2351 325.509 82.8136 313.032 77.1072C297.435 69.9742 284.621 59.0075 263.309 102.726ZM263.309 102.726C248.873 111.792 233.199 122.637 218.605 133.217" stroke="#80A98C" stroke-width="3"/>
<path d="M337.031 124.616C291.355 118.245 193.827 121.23 167.665 183.916C141.503 246.602 76.1282 265.693 46.7113 267.402M337.031 124.616C355.137 120.771 426.669 137.401 437.034 151.328C437.034 151.328 424.651 145.913 420.141 145.232C418.455 144.978 407.533 147.136 394.525 146.516C376.617 145.663 353.056 148.317 342.32 129.796C340.711 127.02 338.048 125.341 337.031 124.616Z" stroke="#80A98C" stroke-width="3"/>
<path d="M126.011 237.16C146.039 221.605 176.746 204.292 202.004 219.09" stroke="#80A98C" stroke-width="3"/>
<path d="M173.836 172.123C184.873 154.888 191.534 128.586 174.211 111.331" stroke="#80A98C" stroke-width="3"/>
<path d="M141.807 223.226C166.46 200.624 223.131 165.467 254.138 207.22" stroke="#80A98C" stroke-width="3"/>
<path d="M277.612 123.314C300.201 121.839 345.364 126.941 344.948 160.879" stroke="#80A98C" stroke-width="3"/>
</g>
<defs>
<filter id="filter0_d_284_230" x="19.4243" y="40.4416" width="449.388" height="259.658" filterUnits="userSpaceOnUse" color-interpolation-filters="sRGB">
<feFlood flood-opacity="0" result="BackgroundImageFix"/>
<feColorMatrix in="SourceAlpha" type="matrix" values="0 0 0 0 0 0 0 0 0 0 0 0 0 0 0 0 0 0 127 0" result="hardAlpha"/>
<feOffset dy="4"/>
<feGaussianBlur stdDeviation="13.6"/>
<feComposite in2="hardAlpha" operator="out"/>
<feColorMatrix type="matrix" values="0 0 0 0 0 0 0 0 0 0 0 0 0 0 0 0 0 0 0.47 0"/>
<feBlend mode="normal" in2="BackgroundImageFix" result="effect1_dropShadow_284_230"/>
<feBlend mode="normal" in="SourceGraphic" in2="effect1_dropShadow_284_230" result="shape"/>
</filter>
</defs>
</svg>
