<svg width="544" height="332" viewBox="0 0 544 332" fill="none" xmlns="http://www.w3.org/2000/svg">
<g filter="url(#filter0_d_284_153)">
<path d="M470.071 95.7336L470.981 96.9261L470.071 95.7336ZM214.15 209.218L213.688 207.791L214.15 209.218ZM49.6425 238.951C48.8163 238.89 48.1959 238.171 48.2568 237.344C48.3177 236.518 49.0368 235.898 49.863 235.959L49.6425 238.951ZM557.183 89.8206L556.782 91.2661C547.189 88.607 531.325 85.6994 515.016 85.6456C498.654 85.5917 482.141 88.4121 470.981 96.9261L470.071 95.7336L469.161 94.541C481.121 85.4163 498.462 82.591 515.025 82.6456C531.641 82.7004 547.773 85.6558 557.583 88.3751L557.183 89.8206ZM470.071 95.7336L470.981 96.9261C456.274 108.146 433.036 116.868 408.919 121.265C384.803 125.661 359.534 125.784 340.741 119.56L341.212 118.136L341.684 116.712C359.814 122.717 384.523 122.663 408.381 118.313C432.237 113.964 454.967 105.369 469.161 94.541L470.071 95.7336ZM341.212 118.136L340.741 119.56C336.322 118.096 332.753 117.909 329.667 118.649C326.578 119.39 323.823 121.096 321.096 123.676C318.354 126.269 315.695 129.689 312.787 133.783C311.336 135.825 309.837 138.015 308.24 140.338C306.646 142.657 304.959 145.103 303.143 147.639C288.559 168.011 265.783 194.087 214.611 210.645L214.15 209.218L213.688 207.791C264.085 191.483 286.379 165.902 300.704 145.893C302.501 143.381 304.175 140.956 305.768 138.638C307.359 136.324 308.873 134.112 310.341 132.046C313.27 127.923 316.068 124.302 319.034 121.496C322.014 118.678 325.218 116.631 328.968 115.732C332.721 114.831 336.872 115.118 341.684 116.712L341.212 118.136ZM214.15 209.218L214.611 210.645C133.211 236.985 70.8157 240.511 49.6425 238.951L49.7527 237.455L49.863 235.959C70.5746 237.485 132.577 234.037 213.688 207.791L214.15 209.218Z" class="svg-theme-color-fill"/>
<path d="M331.789 116.885C330.68 113.332 318.093 111.073 276.62 130.455C235.146 149.838 213.988 145.879 208.593 141.476" class="svg-theme-color-stroke" stroke-width="3" stroke-linecap="round"/>
<path d="M438.78 112.449C437.729 132.001 427.181 149.627 416.449 159.153C407.024 167.519 400.668 170.722 397.261 181.132" class="svg-theme-color-stroke" stroke-width="3" stroke-linecap="round"/>
<path d="M254.513 192.285C264.273 206.054 258.414 216.616 254.265 220.176C250.782 213.449 245.832 198.529 253.891 192.659" class="svg-theme-color-stroke" stroke-width="3"/>
<path d="M118.034 233.907C121.208 250.428 113.375 254.275 109.062 254.134C108.5 246.914 109.389 232.732 117.438 233.77" class="svg-theme-color-stroke" stroke-width="3"/>
<path d="M405.316 120.392C393.431 122.623 387.127 108.346 385.462 100.929C390.997 101.379 402.69 105.701 405.181 119.391" class="svg-theme-color-stroke" stroke-width="3"/>
<path d="M248.864 194.735C241.414 197.206 242.115 204.793 243.397 208.278C246.418 206.523 251.786 201.446 249.087 195.18" class="svg-theme-color-stroke" stroke-width="3"/>
<path d="M397.063 181.411C395.954 196.195 383.895 192.487 378.004 188.785C379.625 183.012 386.327 173.934 397.063 181.411Z" class="svg-theme-color-stroke" stroke-width="3"/>
<path d="M330.271 113.299C328.032 104.003 321.618 102.97 318.691 103.616C320.237 107.57 324.643 115.072 329.899 113.452" class="svg-theme-color-stroke" stroke-width="3"/>
<path d="M331.938 115.622C323.121 100.934 330.005 91.5607 334.55 88.7102C337.542 95.7033 341.343 110.821 332.605 115.349" class="svg-theme-color-stroke" stroke-width="3"/>
<path d="M439.44 112.48C442.466 129.539 457.728 129.846 464.981 127.867C462.256 120.764 453.522 107.666 440.382 112.094" class="svg-theme-color-stroke" stroke-width="3"/>
<path d="M245.069 140.968C241.306 122.509 226.37 121.458 219.373 123.241C222.372 130.996 231.529 145.472 244.167 141.337" class="svg-theme-color-stroke" stroke-width="3"/>
<path d="M52.6013 237.125C37.2273 237.134 30.5983 226.732 29.2055 221.53C36.2186 222.528 50.7011 226.906 52.5269 236.434" class="svg-theme-color-stroke" stroke-width="3"/>
<path d="M319.89 123.258C319.369 120.466 310.145 116.97 275.554 130.891" class="svg-theme-color-stroke" stroke-width="3"/>
<path d="M426.965 115.484C435.01 113.392 432.138 129.833 425.42 149.171" class="svg-theme-color-stroke" stroke-width="3"/>
</g>
<defs>
<filter id="filter0_d_284_153" x="0.101147" y="59.4445" width="584.682" height="227.427" filterUnits="userSpaceOnUse" color-interpolation-filters="sRGB">
<feFlood flood-opacity="0" result="BackgroundImageFix"/>
<feColorMatrix in="SourceAlpha" type="matrix" values="0 0 0 0 0 0 0 0 0 0 0 0 0 0 0 0 0 0 127 0" result="hardAlpha"/>
<feOffset dy="4"/>
<feGaussianBlur stdDeviation="13.6"/>
<feComposite in2="hardAlpha" operator="out"/>
<feColorMatrix type="matrix" values="0 0 0 0 0 0 0 0 0 0 0 0 0 0 0 0 0 0 0.47 0"/>
<feBlend mode="normal" in2="BackgroundImageFix" result="effect1_dropShadow_284_153"/>
<feBlend mode="normal" in="SourceGraphic" in2="effect1_dropShadow_284_153" result="shape"/>
</filter>
</defs>
</svg>
