<svg width="1435" height="276" viewBox="0 0 1435 276" fill="none" xmlns="http://www.w3.org/2000/svg">
    <g filter="url(#filter0_d_285_434)">
        <path d="M1219 116.383L1219.55 113.433L1219 116.383ZM489.5 101.883L489.657 104.879L489.5 101.883ZM64.0253 164.045C62.4584 164.584 61.6244 166.29 62.1627 167.857C62.701 169.424 64.4077 170.258 65.9747 169.72L64.0253 164.045ZM1435 66.8826L1433.59 64.2365C1413.01 75.2277 1377.51 90.9189 1338.07 102.16C1298.56 113.419 1255.47 120.107 1219.55 113.433L1219 116.383L1218.45 119.332C1255.73 126.258 1299.89 119.28 1339.71 107.93C1379.59 96.563 1415.49 80.7042 1436.41 69.5288L1435 66.8826ZM1219 116.383L1219.55 113.433C1173.36 104.851 1109 106.137 1046.63 115.226C984.29 124.311 923.466 141.259 884.474 164.3L886 166.883L887.526 169.465C925.534 147.006 985.46 130.204 1047.5 121.164C1109.5 112.128 1173.14 110.914 1218.45 119.332L1219 116.383ZM886 166.883L884.474 164.3C866.026 175.201 849.815 175.906 831.359 170.984C812.544 165.967 791.831 155.257 764.13 143.255C708.98 119.358 628.642 91.608 489.343 98.8867L489.5 101.883L489.657 104.879C627.858 97.6572 707.27 125.157 761.745 148.76C788.857 160.508 810.425 171.611 829.813 176.781C849.56 182.047 867.474 181.315 887.526 169.465L886 166.883ZM489.5 101.883L489.343 98.8867C267.14 110.497 113.352 147.1 64.0253 164.045L65 166.883L65.9747 169.72C114.648 152.999 267.86 116.468 489.657 104.879L489.5 101.883Z" class="svg-theme-color-fill"/>
        <path d="M864.5 175.383C865.333 182.049 837.2 194.383 718 190.383C598.8 186.383 551.667 207.383 543 218.383" class="svg-theme-color-stroke" stroke-width="6" stroke-linecap="round"/>
        <path d="M1127 109.883C1105.15 78.0654 1060.76 60.765 1027 47.3826C994.5 34.5 979.5 36.6174 946 27.5" class="svg-theme-color-stroke" stroke-width="6" stroke-linecap="round"/>
        <path d="M603.601 102.563C613.549 73.0041 588.983 59.421 575.456 56.3243C573.698 69.8886 576.491 98.0867 601.732 102.364" class="svg-theme-color-stroke" stroke-width="6"/>
        <path d="M233.233 126.273C224.574 96.6225 201.877 95.5556 191.611 98.7285C197.388 111.125 213.538 134.117 231.931 126.908" class="svg-theme-color-stroke" stroke-width="6"/>
        <path d="M1038.42 119.461C1007.55 123.845 1006.44 151.895 1009.75 165.371C1022.66 160.852 1046.6 145.695 1039.09 121.22" class="svg-theme-color-stroke" stroke-width="6"/>
        <path d="M587.552 102.333C567.139 103.297 561.337 90.1947 560.987 83.523C570.01 84.3853 587.974 89.176 587.652 101.44" class="svg-theme-color-stroke" stroke-width="6"/>
        <path d="M951.911 31.2953C937.544 18.8696 923.07 35.1375 917.628 44.8246C924.98 48.4098 942.623 49.6223 951.911 31.2953Z" class="svg-theme-color-stroke" stroke-width="6"/>
        <path d="M864.381 182.383C868.161 199.376 853.706 205.463 846.007 206.383C845.832 198.75 849.052 183.265 863.331 182.383" class="svg-theme-color-stroke" stroke-width="6"/>
        <path d="M866.108 177.383C859.344 207.829 885.21 218.735 898.988 220.383C899.301 206.708 893.539 178.964 867.986 177.383" class="svg-theme-color-stroke" stroke-width="6"/>
        <path d="M1128.56 109.383C1119.01 78.9366 1155.53 68.0301 1174.98 66.3826C1175.43 80.0569 1167.29 107.801 1131.22 109.383" class="svg-theme-color-stroke" stroke-width="6"/>
        <path d="M631.501 194.383C640.653 227.661 605.658 239.582 587.016 241.383C586.592 226.436 594.388 196.111 628.96 194.383" class="svg-theme-color-stroke" stroke-width="6"/>
        <path d="M72.1973 165.49C35.0976 175.947 29.3783 197.77 31.1561 207.375C47.0896 200.937 77.7054 183.788 72.7001 166.691" class="svg-theme-color-stroke" stroke-width="6"/>
        <path d="M829.5 172.883C831 177.883 812.2 189.983 715 190.383" class="svg-theme-color-stroke" stroke-width="6"/>
        <path d="M1095.54 113C1115.94 111.033 1091.55 87.1479 1058 60" class="svg-theme-color-stroke" stroke-width="6"/>
    </g>
    <defs>
        <filter id="filter0_d_285_434" x="0.666027" y="0.601879" width="1462.95" height="275.276" filterUnits="userSpaceOnUse" color-interpolation-filters="sRGB">
            <feFlood flood-opacity="0" result="BackgroundImageFix"/>
            <feColorMatrix in="SourceAlpha" type="matrix" values="0 0 0 0 0 0 0 0 0 0 0 0 0 0 0 0 0 0 127 0" result="hardAlpha"/>
            <feOffset dy="4"/>
            <feGaussianBlur stdDeviation="13.6"/>
            <feComposite in2="hardAlpha" operator="out"/>
            <feColorMatrix type="matrix" values="0 0 0 0 0 0 0 0 0 0 0 0 0 0 0 0 0 0 0.47 0"/>
            <feBlend mode="normal" in2="BackgroundImageFix" result="effect1_dropShadow_285_434"/>
            <feBlend mode="normal" in="SourceGraphic" in2="effect1_dropShadow_285_434" result="shape"/>
        </filter>
    </defs>
</svg>