<svg width="50" height="50" viewBox="0 0 50 50" fill="none" xmlns="http://www.w3.org/2000/svg">
<rect x="0.5" y="0.5" width="49" height="49" rx="14.5" fill="#3A4D37" stroke="white"/>
<path d="M11.0001 23.5C10.1717 23.5 9.50012 24.1716 9.50012 25C9.50012 25.8284 10.1717 26.5 11.0001 26.5L11.0001 23.5ZM40.0608 26.0607C40.6466 25.4749 40.6466 24.5251 40.0608 23.9393L30.5148 14.3934C29.9291 13.8076 28.9793 13.8076 28.3935 14.3934C27.8077 14.9792 27.8077 15.9289 28.3935 16.5147L36.8788 25L28.3935 33.4853C27.8077 34.0711 27.8077 35.0208 28.3935 35.6066C28.9793 36.1924 29.9291 36.1924 30.5148 35.6066L40.0608 26.0607ZM11.0001 25L11.0001 26.5L39.0001 26.5L39.0001 25L39.0001 23.5L11.0001 23.5L11.0001 25Z" fill="white"/>
</svg>
