<svg width="30" height="31" viewBox="0 0 30 31" fill="none" xmlns="http://www.w3.org/2000/svg">
<rect x="-0.00146484" y="0.783691" width="30" height="30" rx="10" fill="white"/>
<path d="M7.23987 14.2666C6.68758 14.2666 6.23987 14.7143 6.23987 15.2666C6.23987 15.8189 6.68758 16.2666 7.23987 16.2666L7.23987 14.2666ZM24.4987 15.9737C24.8892 15.5832 24.8892 14.95 24.4987 14.5595L18.1347 8.19553C17.7442 7.80501 17.111 7.80501 16.7205 8.19553C16.33 8.58606 16.33 9.21922 16.7205 9.60975L22.3774 15.2666L16.7205 20.9235C16.33 21.314 16.33 21.9471 16.7205 22.3377C17.111 22.7282 17.7442 22.7282 18.1347 22.3377L24.4987 15.9737ZM7.23987 15.2666L7.23987 16.2666L23.7916 16.2666L23.7916 15.2666L23.7916 14.2666L7.23987 14.2666L7.23987 15.2666Z" fill="#3A4D37"/>
</svg>
