<svg width="50" height="50" viewBox="0 0 50 50" fill="none" xmlns="http://www.w3.org/2000/svg">
<rect width="50" height="50" rx="15" fill="white" fill-opacity="0.69"/>
<path d="M11 23.5C10.1716 23.5 9.5 24.1716 9.5 25C9.5 25.8284 10.1716 26.5 11 26.5L11 23.5ZM40.0607 26.0607C40.6465 25.4749 40.6465 24.5251 40.0607 23.9393L30.5147 14.3934C29.9289 13.8076 28.9792 13.8076 28.3934 14.3934C27.8076 14.9792 27.8076 15.9289 28.3934 16.5147L36.8787 25L28.3934 33.4853C27.8076 34.0711 27.8076 35.0208 28.3934 35.6066C28.9792 36.1924 29.9289 36.1924 30.5147 35.6066L40.0607 26.0607ZM11 25L11 26.5L39 26.5L39 25L39 23.5L11 23.5L11 25Z" fill="#3A4D37"/>
</svg>
