<svg width="125" height="120" viewBox="0 0 125 120" fill="none" xmlns="http://www.w3.org/2000/svg">
<path d="M59 69V85H67V69H59Z" fill="#144915" stroke="white" stroke-width="3"/>
<path d="M45.5 85V64L49.5 61.5V56H55V58L62.5 53L80.5 64V85H85.5V73.5H103.5L81.5 20.5L74 39.5L62.5 5L52 39.5L43 20.5L22 73.5H40V85H45.5Z" fill="#144915" stroke="white" stroke-width="3"/>
<path d="M29.595 101.615L29.85 99.92H34.89L35.145 101.615H29.595ZM32.34 96.905L30.765 100.52L30.81 101L29.43 104H27.015L32.34 92.885L37.665 104H35.235L33.885 101.09L33.915 100.55L32.34 96.905ZM38.8041 93.5H40.9491V104H38.8041V93.5ZM40.1091 95.315V93.5H42.1941C43.0241 93.5 43.7291 93.635 44.3091 93.905C44.8991 94.175 45.3491 94.56 45.6591 95.06C45.9691 95.56 46.1241 96.155 46.1241 96.845C46.1241 97.525 45.9691 98.12 45.6591 98.63C45.3491 99.13 44.8991 99.515 44.3091 99.785C43.7291 100.055 43.0241 100.19 42.1941 100.19H40.1091V98.375H42.1941C42.7641 98.375 43.2141 98.245 43.5441 97.985C43.8741 97.725 44.0391 97.345 44.0391 96.845C44.0391 96.335 43.8741 95.955 43.5441 95.705C43.2141 95.445 42.7641 95.315 42.1941 95.315H40.1091ZM48.5486 99.32V97.535H51.9836C52.6636 97.535 53.2686 97.67 53.7986 97.94C54.3386 98.2 54.7636 98.575 55.0736 99.065C55.3936 99.545 55.5536 100.11 55.5536 100.76C55.5536 101.4 55.3936 101.965 55.0736 102.455C54.7636 102.945 54.3386 103.325 53.7986 103.595C53.2686 103.865 52.6636 104 51.9836 104H48.5486V102.185H51.5936C51.9536 102.185 52.2686 102.135 52.5386 102.035C52.8086 101.925 53.0136 101.765 53.1536 101.555C53.3036 101.345 53.3786 101.08 53.3786 100.76C53.3786 100.43 53.3036 100.16 53.1536 99.95C53.0136 99.74 52.8086 99.585 52.5386 99.485C52.2686 99.375 51.9536 99.32 51.5936 99.32H48.5486ZM47.8436 93.5H54.7586V95.315H50.0186V104H47.8436V93.5ZM58.9554 98.75C58.9554 99.42 59.0954 100.015 59.3754 100.535C59.6554 101.055 60.0404 101.465 60.5304 101.765C61.0204 102.065 61.5904 102.215 62.2404 102.215C62.8904 102.215 63.4604 102.065 63.9504 101.765C64.4404 101.465 64.8204 101.055 65.0904 100.535C65.3704 100.015 65.5104 99.42 65.5104 98.75C65.5104 98.08 65.3754 97.485 65.1054 96.965C64.8354 96.445 64.4554 96.035 63.9654 95.735C63.4754 95.435 62.9004 95.285 62.2404 95.285C61.5904 95.285 61.0204 95.435 60.5304 95.735C60.0404 96.035 59.6554 96.445 59.3754 96.965C59.0954 97.485 58.9554 98.08 58.9554 98.75ZM56.6904 98.75C56.6904 97.95 56.8304 97.22 57.1104 96.56C57.3904 95.89 57.7804 95.31 58.2804 94.82C58.7804 94.33 59.3654 93.955 60.0354 93.695C60.7154 93.425 61.4504 93.29 62.2404 93.29C63.0404 93.29 63.7754 93.425 64.4454 93.695C65.1154 93.955 65.7004 94.33 66.2004 94.82C66.7104 95.31 67.1004 95.89 67.3704 96.56C67.6504 97.22 67.7904 97.95 67.7904 98.75C67.7904 99.54 67.6504 100.275 67.3704 100.955C67.1004 101.625 66.7154 102.21 66.2154 102.71C65.7254 103.21 65.1404 103.6 64.4604 103.88C63.7904 104.15 63.0504 104.285 62.2404 104.285C61.4304 104.285 60.6854 104.15 60.0054 103.88C59.3354 103.6 58.7504 103.21 58.2504 102.71C57.7504 102.21 57.3654 101.625 57.0954 100.955C56.8254 100.275 56.6904 99.54 56.6904 98.75ZM69.4486 93.5H71.5936V104H69.4486V93.5ZM70.7536 95.315V93.5H72.8386C73.6686 93.5 74.3736 93.635 74.9536 93.905C75.5436 94.175 75.9936 94.56 76.3036 95.06C76.6136 95.56 76.7686 96.155 76.7686 96.845C76.7686 97.525 76.6136 98.12 76.3036 98.63C75.9936 99.13 75.5436 99.515 74.9536 99.785C74.3736 100.055 73.6686 100.19 72.8386 100.19H70.7536V98.375H72.8386C73.4086 98.375 73.8586 98.245 74.1886 97.985C74.5186 97.725 74.6836 97.345 74.6836 96.845C74.6836 96.335 74.5186 95.955 74.1886 95.705C73.8586 95.445 73.4086 95.315 72.8386 95.315H70.7536ZM87.8931 95.765L78.4281 104.525L78.5031 101.735L87.9681 92.975L87.8931 95.765ZM80.4981 93.5V102.29L78.4281 104.525V93.5H80.4981ZM87.9681 92.975V104H85.8981V95.27L87.9681 92.975ZM94.8844 99.11L91.7344 104H89.1994L92.6194 99.11H94.8844ZM97.2694 93.5V104H95.1244V93.5H97.2694ZM95.9644 95.33H93.8794C93.5094 95.33 93.1844 95.395 92.9044 95.525C92.6244 95.645 92.4094 95.825 92.2594 96.065C92.1094 96.295 92.0344 96.575 92.0344 96.905C92.0344 97.235 92.1094 97.52 92.2594 97.76C92.4094 97.99 92.6244 98.17 92.9044 98.3C93.1844 98.42 93.5094 98.48 93.8794 98.48H95.9644V100.19H93.7444C92.9244 100.19 92.2194 100.05 91.6294 99.77C91.0494 99.49 90.6044 99.1 90.2944 98.6C89.9844 98.09 89.8294 97.505 89.8294 96.845C89.8294 96.175 89.9844 95.59 90.2944 95.09C90.6044 94.59 91.0494 94.2 91.6294 93.92C92.2194 93.64 92.9244 93.5 93.7444 93.5H95.9644V95.33Z" fill="white"/>
<path d="M0.76 109H2.23V116H0.76V109ZM4.72 109H6.42L3.52 112.28L6.57 116H4.83L1.81 112.32L4.72 109ZM11.812 111.4V116H10.562V112.58H8.66203V114.4C8.66203 114.76 8.5987 115.06 8.47203 115.3C8.34536 115.533 8.13536 115.71 7.84203 115.83C7.55536 115.943 7.1687 116 6.68203 116V114.84C6.88203 114.84 7.05203 114.797 7.19203 114.71C7.3387 114.617 7.41203 114.427 7.41203 114.14V111.4H11.812ZM17.6274 111.4L14.6274 118.2H13.2974L14.4574 115.54L12.5474 111.4H13.9874L15.4674 115.06L14.8274 115.04L16.2774 111.4H17.6274ZM20.5584 112.39L20.6384 111.3C21.125 111.3 21.5517 111.403 21.9184 111.61C22.285 111.817 22.575 112.1 22.7884 112.46C23.0017 112.82 23.1084 113.233 23.1084 113.7C23.1084 114.16 23.0017 114.573 22.7884 114.94C22.575 115.3 22.275 115.583 21.8884 115.79C21.5084 115.997 21.065 116.1 20.5584 116.1C20.0517 116.1 19.5984 115.99 19.1984 115.77C18.805 115.543 18.4917 115.207 18.2584 114.76C18.0317 114.313 17.9184 113.76 17.9184 113.1L19.3184 113.7C19.3184 113.96 19.3717 114.19 19.4784 114.39C19.5917 114.583 19.7417 114.737 19.9284 114.85C20.115 114.957 20.325 115.01 20.5584 115.01C20.785 115.01 20.9917 114.957 21.1784 114.85C21.365 114.737 21.5117 114.583 21.6184 114.39C21.725 114.19 21.7784 113.96 21.7784 113.7C21.7784 113.44 21.725 113.21 21.6184 113.01C21.5117 112.81 21.365 112.657 21.1784 112.55C20.9917 112.443 20.785 112.39 20.5584 112.39ZM18.7484 113.7C18.7484 113.327 18.7917 112.993 18.8784 112.7C18.965 112.4 19.0917 112.147 19.2584 111.94C19.4317 111.733 19.6317 111.577 19.8584 111.47C20.0917 111.357 20.3517 111.3 20.6384 111.3L20.5584 112.39C20.4117 112.39 20.265 112.42 20.1184 112.48C19.9717 112.533 19.8384 112.617 19.7184 112.73C19.5984 112.843 19.5017 112.98 19.4284 113.14C19.355 113.3 19.3184 113.487 19.3184 113.7H18.7484ZM17.9184 113.1C17.9184 112.473 17.975 111.92 18.0884 111.44C18.2017 110.96 18.4017 110.55 18.6884 110.21C18.9817 109.87 19.3917 109.6 19.9184 109.4C20.3717 109.22 20.715 109.037 20.9484 108.85C21.1884 108.657 21.3317 108.44 21.3784 108.2H22.6284C22.595 108.493 22.4884 108.77 22.3084 109.03C22.1284 109.29 21.8917 109.52 21.5984 109.72C21.3117 109.92 20.985 110.087 20.6184 110.22C20.2117 110.367 19.8917 110.563 19.6584 110.81C19.4317 111.057 19.2717 111.333 19.1784 111.64C19.0917 111.947 19.0484 112.267 19.0484 112.6L19.2184 113.67L17.9184 113.1ZM29.4351 112.59V111.9C29.7751 111.9 30.0584 111.857 30.2851 111.77C30.5117 111.683 30.6817 111.567 30.7951 111.42C30.9151 111.267 30.9751 111.1 30.9751 110.92C30.9751 110.747 30.9317 110.597 30.8451 110.47C30.7651 110.337 30.6384 110.233 30.4651 110.16C30.2984 110.087 30.0917 110.05 29.8451 110.05C29.5917 110.05 29.3717 110.09 29.1851 110.17C28.9984 110.243 28.8517 110.35 28.7451 110.49C28.6451 110.623 28.5951 110.777 28.5951 110.95H27.2651C27.2651 110.55 27.3651 110.197 27.5651 109.89C27.7717 109.577 28.0684 109.33 28.4551 109.15C28.8417 108.97 29.3051 108.88 29.8451 108.88C30.3984 108.88 30.8617 108.967 31.2351 109.14C31.6151 109.313 31.9051 109.543 32.1051 109.83C32.3051 110.117 32.4051 110.437 32.4051 110.79C32.4051 111.077 32.3284 111.333 32.1751 111.56C32.0217 111.78 31.8117 111.967 31.5451 112.12C31.2784 112.273 30.9651 112.39 30.6051 112.47C30.2451 112.55 29.8551 112.59 29.4351 112.59ZM29.8651 116.14C29.3717 116.14 28.9417 116.08 28.5751 115.96C28.2151 115.84 27.9151 115.677 27.6751 115.47C27.4417 115.257 27.2651 115.017 27.1451 114.75C27.0251 114.477 26.9651 114.19 26.9651 113.89H28.3851C28.3984 114.117 28.4651 114.31 28.5851 114.47C28.7051 114.63 28.8684 114.753 29.0751 114.84C29.2884 114.92 29.5384 114.96 29.8251 114.96C30.2584 114.96 30.5917 114.877 30.8251 114.71C31.0584 114.537 31.1751 114.287 31.1751 113.96C31.1751 113.74 31.1084 113.55 30.9751 113.39C30.8484 113.223 30.6551 113.097 30.3951 113.01C30.1351 112.923 29.8151 112.88 29.4351 112.88V112.12C30.0417 112.12 30.5817 112.19 31.0551 112.33C31.5351 112.463 31.9117 112.677 32.1851 112.97C32.4651 113.257 32.6051 113.637 32.6051 114.11C32.6051 114.51 32.5017 114.863 32.2951 115.17C32.0884 115.477 31.7784 115.717 31.3651 115.89C30.9584 116.057 30.4584 116.14 29.8651 116.14ZM34.5092 114.63C34.5092 114.757 34.5426 114.863 34.6092 114.95C34.6759 115.03 34.7659 115.093 34.8792 115.14C34.9992 115.18 35.1292 115.2 35.2692 115.2C35.4759 115.2 35.6659 115.167 35.8392 115.1C36.0126 115.033 36.1492 114.923 36.2492 114.77C36.3492 114.617 36.3992 114.413 36.3992 114.16L36.5592 114.7C36.5592 114.993 36.4826 115.247 36.3292 115.46C36.1759 115.667 35.9692 115.827 35.7092 115.94C35.4559 116.047 35.1692 116.1 34.8492 116.1C34.5359 116.1 34.2559 116.047 34.0092 115.94C33.7626 115.833 33.5659 115.677 33.4192 115.47C33.2792 115.257 33.2092 114.997 33.2092 114.69C33.2092 114.377 33.2892 114.11 33.4492 113.89C33.6159 113.663 33.8459 113.49 34.1392 113.37C34.4392 113.25 34.7892 113.19 35.1892 113.19C35.4359 113.19 35.6659 113.22 35.8792 113.28C36.0926 113.34 36.2726 113.41 36.4192 113.49C36.5659 113.57 36.6692 113.647 36.7292 113.72V114.35C36.5426 114.21 36.3492 114.107 36.1492 114.04C35.9492 113.973 35.7126 113.94 35.4392 113.94C35.2392 113.94 35.0692 113.97 34.9292 114.03C34.7892 114.09 34.6826 114.17 34.6092 114.27C34.5426 114.37 34.5092 114.49 34.5092 114.63ZM34.0992 112.71L33.6292 111.82C33.8626 111.693 34.1492 111.573 34.4892 111.46C34.8292 111.34 35.2059 111.28 35.6192 111.28C36.0192 111.28 36.3692 111.337 36.6692 111.45C36.9759 111.563 37.2159 111.73 37.3892 111.95C37.5626 112.163 37.6492 112.427 37.6492 112.74V116H36.3992V112.95C36.3992 112.743 36.3192 112.583 36.1592 112.47C35.9992 112.35 35.7926 112.29 35.5392 112.29C35.3192 112.29 35.1126 112.317 34.9192 112.37C34.7326 112.417 34.5659 112.473 34.4192 112.54C34.2792 112.607 34.1726 112.663 34.0992 112.71ZM38.8829 111.4H41.6729V112.49H40.1529V116H38.8829V111.4ZM41.8827 113.7C41.8827 113.22 41.9927 112.8 42.2127 112.44C42.4394 112.08 42.7427 111.8 43.1227 111.6C43.5094 111.4 43.9461 111.3 44.4327 111.3C44.9194 111.3 45.3527 111.4 45.7327 111.6C46.1194 111.8 46.4227 112.08 46.6427 112.44C46.8694 112.8 46.9827 113.22 46.9827 113.7C46.9827 114.173 46.8694 114.593 46.6427 114.96C46.4227 115.32 46.1194 115.6 45.7327 115.8C45.3527 116 44.9194 116.1 44.4327 116.1C43.9461 116.1 43.5094 116 43.1227 115.8C42.7427 115.6 42.4394 115.32 42.2127 114.96C41.9927 114.593 41.8827 114.173 41.8827 113.7ZM43.2027 113.7C43.2027 113.96 43.2561 114.19 43.3627 114.39C43.4761 114.583 43.6261 114.737 43.8127 114.85C43.9994 114.957 44.2061 115.01 44.4327 115.01C44.6594 115.01 44.8661 114.957 45.0527 114.85C45.2394 114.737 45.3861 114.583 45.4927 114.39C45.6061 114.19 45.6627 113.96 45.6627 113.7C45.6627 113.44 45.6061 113.21 45.4927 113.01C45.3861 112.81 45.2394 112.657 45.0527 112.55C44.8661 112.443 44.6594 112.39 44.4327 112.39C44.2061 112.39 43.9994 112.443 43.8127 112.55C43.6261 112.657 43.4761 112.81 43.3627 113.01C43.2561 113.21 43.2027 113.44 43.2027 113.7ZM49.2245 118.2H47.9245V111.4H49.2245V118.2ZM53.0045 113.7C53.0045 114.22 52.9011 114.663 52.6945 115.03C52.4878 115.397 52.2145 115.673 51.8745 115.86C51.5411 116.047 51.1811 116.14 50.7945 116.14C50.4011 116.14 50.0578 116.04 49.7645 115.84C49.4778 115.64 49.2545 115.357 49.0945 114.99C48.9411 114.623 48.8645 114.193 48.8645 113.7C48.8645 113.2 48.9411 112.77 49.0945 112.41C49.2545 112.043 49.4778 111.76 49.7645 111.56C50.0578 111.36 50.4011 111.26 50.7945 111.26C51.1811 111.26 51.5411 111.353 51.8745 111.54C52.2145 111.727 52.4878 112.003 52.6945 112.37C52.9011 112.73 53.0045 113.173 53.0045 113.7ZM51.6645 113.7C51.6645 113.427 51.6078 113.193 51.4945 113C51.3811 112.807 51.2278 112.66 51.0345 112.56C50.8478 112.46 50.6411 112.41 50.4145 112.41C50.2211 112.41 50.0311 112.46 49.8445 112.56C49.6645 112.653 49.5145 112.797 49.3945 112.99C49.2811 113.183 49.2245 113.42 49.2245 113.7C49.2245 113.98 49.2811 114.217 49.3945 114.41C49.5145 114.603 49.6645 114.75 49.8445 114.85C50.0311 114.943 50.2211 114.99 50.4145 114.99C50.6411 114.99 50.8478 114.94 51.0345 114.84C51.2278 114.74 51.3811 114.593 51.4945 114.4C51.6078 114.207 51.6645 113.973 51.6645 113.7ZM53.6601 113.7C53.6601 113.22 53.7701 112.8 53.9901 112.44C54.2167 112.08 54.5201 111.8 54.9001 111.6C55.2867 111.4 55.7234 111.3 56.2101 111.3C56.6967 111.3 57.1301 111.4 57.5101 111.6C57.8967 111.8 58.2001 112.08 58.4201 112.44C58.6467 112.8 58.7601 113.22 58.7601 113.7C58.7601 114.173 58.6467 114.593 58.4201 114.96C58.2001 115.32 57.8967 115.6 57.5101 115.8C57.1301 116 56.6967 116.1 56.2101 116.1C55.7234 116.1 55.2867 116 54.9001 115.8C54.5201 115.6 54.2167 115.32 53.9901 114.96C53.7701 114.593 53.6601 114.173 53.6601 113.7ZM54.9801 113.7C54.9801 113.96 55.0334 114.19 55.1401 114.39C55.2534 114.583 55.4034 114.737 55.5901 114.85C55.7767 114.957 55.9834 115.01 56.2101 115.01C56.4367 115.01 56.6434 114.957 56.8301 114.85C57.0167 114.737 57.1634 114.583 57.2701 114.39C57.3834 114.19 57.4401 113.96 57.4401 113.7C57.4401 113.44 57.3834 113.21 57.2701 113.01C57.1634 112.81 57.0167 112.657 56.8301 112.55C56.6434 112.443 56.4367 112.39 56.2101 112.39C55.9834 112.39 55.7767 112.443 55.5901 112.55C55.4034 112.657 55.2534 112.81 55.1401 113.01C55.0334 113.21 54.9801 113.44 54.9801 113.7ZM62.0138 113.08L60.8338 115.7L59.5538 115.49L62.0138 111.05L64.4838 115.49L63.1938 115.7L62.0138 113.08ZM63.8038 116H60.2738V116.9H58.9938V114.95H65.0338V116.9H63.8038V116ZM66.5983 114.08V113.07H70.2183V114.08H66.5983ZM69.5883 111.4H70.8383V116H69.5883V111.4ZM66.1283 111.4H67.3783V116H66.1283V111.4ZM71.8046 113.7C71.8046 113.22 71.9146 112.8 72.1346 112.44C72.3613 112.08 72.6646 111.8 73.0446 111.6C73.4313 111.4 73.8679 111.3 74.3546 111.3C74.8413 111.3 75.2746 111.4 75.6546 111.6C76.0413 111.8 76.3446 112.08 76.5646 112.44C76.7913 112.8 76.9046 113.22 76.9046 113.7C76.9046 114.173 76.7913 114.593 76.5646 114.96C76.3446 115.32 76.0413 115.6 75.6546 115.8C75.2746 116 74.8413 116.1 74.3546 116.1C73.8679 116.1 73.4313 116 73.0446 115.8C72.6646 115.6 72.3613 115.32 72.1346 114.96C71.9146 114.593 71.8046 114.173 71.8046 113.7ZM73.1246 113.7C73.1246 113.96 73.1779 114.19 73.2846 114.39C73.3979 114.583 73.5479 114.737 73.7346 114.85C73.9213 114.957 74.1279 115.01 74.3546 115.01C74.5813 115.01 74.7879 114.957 74.9746 114.85C75.1613 114.737 75.3079 114.583 75.4146 114.39C75.5279 114.19 75.5846 113.96 75.5846 113.7C75.5846 113.44 75.5279 113.21 75.4146 113.01C75.3079 112.81 75.1613 112.657 74.9746 112.55C74.7879 112.443 74.5813 112.39 74.3546 112.39C74.1279 112.39 73.9213 112.443 73.7346 112.55C73.5479 112.657 73.3979 112.81 73.2846 113.01C73.1779 113.21 73.1246 113.44 73.1246 113.7ZM77.9063 111.4H80.6963V112.49H79.1763V116H77.9063V111.4ZM80.9062 113.7C80.9062 113.22 81.0162 112.8 81.2362 112.44C81.4628 112.08 81.7662 111.8 82.1462 111.6C82.5328 111.4 82.9695 111.3 83.4562 111.3C83.9428 111.3 84.3762 111.4 84.7562 111.6C85.1428 111.8 85.4462 112.08 85.6662 112.44C85.8928 112.8 86.0062 113.22 86.0062 113.7C86.0062 114.173 85.8928 114.593 85.6662 114.96C85.4462 115.32 85.1428 115.6 84.7562 115.8C84.3762 116 83.9428 116.1 83.4562 116.1C82.9695 116.1 82.5328 116 82.1462 115.8C81.7662 115.6 81.4628 115.32 81.2362 114.96C81.0162 114.593 80.9062 114.173 80.9062 113.7ZM82.2262 113.7C82.2262 113.96 82.2795 114.19 82.3862 114.39C82.4995 114.583 82.6495 114.737 82.8362 114.85C83.0228 114.957 83.2295 115.01 83.4562 115.01C83.6828 115.01 83.8895 114.957 84.0762 114.85C84.2628 114.737 84.4095 114.583 84.5162 114.39C84.6295 114.19 84.6862 113.96 84.6862 113.7C84.6862 113.44 84.6295 113.21 84.5162 113.01C84.4095 112.81 84.2628 112.657 84.0762 112.55C83.8895 112.443 83.6828 112.39 83.4562 112.39C83.2295 112.39 83.0228 112.443 82.8362 112.55C82.6495 112.657 82.4995 112.81 82.3862 113.01C82.2795 113.21 82.2262 113.44 82.2262 113.7ZM91.2059 112.5C91.2059 112.947 91.2993 113.343 91.4859 113.69C91.6726 114.037 91.9293 114.31 92.2559 114.51C92.5826 114.71 92.9626 114.81 93.3959 114.81C93.8293 114.81 94.2093 114.71 94.5359 114.51C94.8626 114.31 95.1159 114.037 95.2959 113.69C95.4826 113.343 95.5759 112.947 95.5759 112.5C95.5759 112.053 95.4859 111.657 95.3059 111.31C95.1259 110.963 94.8726 110.69 94.5459 110.49C94.2193 110.29 93.8359 110.19 93.3959 110.19C92.9626 110.19 92.5826 110.29 92.2559 110.49C91.9293 110.69 91.6726 110.963 91.4859 111.31C91.2993 111.657 91.2059 112.053 91.2059 112.5ZM89.6959 112.5C89.6959 111.967 89.7893 111.48 89.9759 111.04C90.1626 110.593 90.4226 110.207 90.7559 109.88C91.0893 109.553 91.4793 109.303 91.9259 109.13C92.3793 108.95 92.8693 108.86 93.3959 108.86C93.9293 108.86 94.4193 108.95 94.8659 109.13C95.3126 109.303 95.7026 109.553 96.0359 109.88C96.3759 110.207 96.6359 110.593 96.8159 111.04C97.0026 111.48 97.0959 111.967 97.0959 112.5C97.0959 113.027 97.0026 113.517 96.8159 113.97C96.6359 114.417 96.3793 114.807 96.0459 115.14C95.7193 115.473 95.3293 115.733 94.8759 115.92C94.4293 116.1 93.9359 116.19 93.3959 116.19C92.8559 116.19 92.3593 116.1 91.9059 115.92C91.4593 115.733 91.0693 115.473 90.7359 115.14C90.4026 114.807 90.1459 114.417 89.9659 113.97C89.7859 113.517 89.6959 113.027 89.6959 112.5ZM97.4914 111.4H100.551V112.49H97.4914V111.4ZM98.4014 111.6H99.6514V116H98.4014V111.6ZM103.43 113.08L102.25 115.7L100.97 115.49L103.43 111.05L105.9 115.49L104.61 115.7L103.43 113.08ZM105.22 116H101.69V116.9H100.41V114.95H106.45V116.9H105.22V116ZM112.234 111.4H113.524V116H112.234V111.4ZM107.544 111.4H108.844V116H107.544V111.4ZM108.514 113.9V113.01H109.944C110.418 113.01 110.814 113.127 111.134 113.36C111.461 113.587 111.624 113.947 111.624 114.44C111.624 114.767 111.551 115.05 111.404 115.29C111.258 115.523 111.058 115.7 110.804 115.82C110.551 115.94 110.264 116 109.944 116H108.514V114.98H109.754C109.894 114.98 110.011 114.96 110.104 114.92C110.198 114.873 110.268 114.81 110.314 114.73C110.368 114.65 110.394 114.553 110.394 114.44C110.394 114.273 110.338 114.143 110.224 114.05C110.118 113.95 109.961 113.9 109.754 113.9H108.514ZM117.6 111.4H119.03L117.33 113.63L119.13 116H117.7L116.66 114.54L115.64 116H114.16L115.98 113.63L114.26 111.4H115.74L116.66 112.73L117.6 111.4ZM120.691 114.63C120.691 114.757 120.724 114.863 120.791 114.95C120.858 115.03 120.948 115.093 121.061 115.14C121.181 115.18 121.311 115.2 121.451 115.2C121.658 115.2 121.848 115.167 122.021 115.1C122.194 115.033 122.331 114.923 122.431 114.77C122.531 114.617 122.581 114.413 122.581 114.16L122.741 114.7C122.741 114.993 122.664 115.247 122.511 115.46C122.358 115.667 122.151 115.827 121.891 115.94C121.638 116.047 121.351 116.1 121.031 116.1C120.718 116.1 120.438 116.047 120.191 115.94C119.944 115.833 119.748 115.677 119.601 115.47C119.461 115.257 119.391 114.997 119.391 114.69C119.391 114.377 119.471 114.11 119.631 113.89C119.798 113.663 120.028 113.49 120.321 113.37C120.621 113.25 120.971 113.19 121.371 113.19C121.618 113.19 121.848 113.22 122.061 113.28C122.274 113.34 122.454 113.41 122.601 113.49C122.748 113.57 122.851 113.647 122.911 113.72V114.35C122.724 114.21 122.531 114.107 122.331 114.04C122.131 113.973 121.894 113.94 121.621 113.94C121.421 113.94 121.251 113.97 121.111 114.03C120.971 114.09 120.864 114.17 120.791 114.27C120.724 114.37 120.691 114.49 120.691 114.63ZM120.281 112.71L119.811 111.82C120.044 111.693 120.331 111.573 120.671 111.46C121.011 111.34 121.388 111.28 121.801 111.28C122.201 111.28 122.551 111.337 122.851 111.45C123.158 111.563 123.398 111.73 123.571 111.95C123.744 112.163 123.831 112.427 123.831 112.74V116H122.581V112.95C122.581 112.743 122.501 112.583 122.341 112.47C122.181 112.35 121.974 112.29 121.721 112.29C121.501 112.29 121.294 112.317 121.101 112.37C120.914 112.417 120.748 112.473 120.601 112.54C120.461 112.607 120.354 112.663 120.281 112.71Z" fill="white"/>
</svg>
