<svg width="44" height="24" viewBox="0 0 44 24" fill="none" xmlns="http://www.w3.org/2000/svg">
<path d="M2.05164 10.5C1.22321 10.5 0.551636 11.1716 0.551636 12C0.551636 12.8284 1.22321 13.5 2.05164 13.5V10.5ZM43.0901 13.0607C43.6759 12.4749 43.6759 11.5251 43.0901 10.9393L33.5441 1.3934C32.9584 0.807611 32.0086 0.807611 31.4228 1.3934C30.837 1.97919 30.837 2.92893 31.4228 3.51472L39.9081 12L31.4228 20.4853C30.837 21.0711 30.837 22.0208 31.4228 22.6066C32.0086 23.1924 32.9584 23.1924 33.5441 22.6066L43.0901 13.0607ZM2.05164 12V13.5H42.0294V12V10.5H2.05164V12Z" fill="#3A4D37" fill-opacity="0.76"/>
</svg>
