<svg viewBox="0 0 50 51" fill="none" xmlns="http://www.w3.org/2000/svg">
    <path d="M35 0.0856934C43.2843 0.0856937 50 6.80142 50 15.0857V35.239C49.9999 43.5232 43.2842 50.239 35 50.239H15C6.71579 50.239 9.65924e-05 43.5232 0 35.239V15.0857C0 6.80142 6.71573 0.0856937 15 0.0856934H35ZM30.5146 14.5554C29.9289 13.97 28.9793 13.97 28.3936 14.5554C27.8079 15.1411 27.808 16.0907 28.3936 16.6765L35.3789 23.6619L11 23.6628C10.1716 23.6628 9.5 24.3344 9.5 25.1628C9.50026 25.991 10.1717 26.6628 11 26.6628L35.3789 26.6619L28.3936 33.6472C27.8078 34.2329 27.808 35.1825 28.3936 35.7683C28.9793 36.3541 29.9289 36.3541 30.5146 35.7683L40.0605 26.2224C40.6461 25.6366 40.6463 24.687 40.0605 24.1013L30.5146 14.5554Z" fill="white" fill-opacity="0.69"/>
</svg>
