<svg width="50" height="50" viewBox="0 0 50 50" fill="none" xmlns="http://www.w3.org/2000/svg">
<rect width="50" height="50" rx="15" fill="white" fill-opacity="0.69"/>
<path d="M11.0001 23.5811C10.1717 23.5811 9.50012 24.2526 9.50012 25.0811C9.50012 25.9095 10.1717 26.5811 11.0001 26.5811L11.0001 23.5811ZM40.0608 26.1417C40.6466 25.5559 40.6466 24.6062 40.0608 24.0204L30.5148 14.4745C29.9291 13.8887 28.9793 13.8887 28.3935 14.4745C27.8077 15.0602 27.8077 16.01 28.3935 16.5958L36.8788 25.0811L28.3935 33.5663C27.8077 34.1521 27.8077 35.1019 28.3935 35.6877C28.9793 36.2734 29.9291 36.2734 30.5148 35.6877L40.0608 26.1417ZM11.0001 25.0811L11.0001 26.5811L39.0001 26.5811L39.0001 25.0811L39.0001 23.5811L11.0001 23.5811L11.0001 25.0811Z" fill="#3A4D37"/>
</svg>
