<svg xmlns="http://www.w3.org/2000/svg"
	 viewBox="0 0 512 512" xml:space="preserve">
<g>
	<g>
		<path d="M337.644,83.327c4.697-8.159,7.399-17.604,7.399-27.675C345.043,24.966,320.078,0,289.391,0
			c-30.687,0-55.652,24.966-55.652,55.652c0,10.071,2.702,19.516,7.4,27.675c-96.531,21.999-168.791,108.531-168.791,211.63
			C72.348,414.634,169.714,512,289.391,512s217.043-97.366,217.043-217.043C506.435,191.858,434.175,105.326,337.644,83.327z
			 M452.951,211.478c10.436,20.364,17.165,42.924,19.326,66.783h-66.35c-0.917-23.218-3.745-45.717-8.329-66.783H452.951z
			 M430.955,178.087h-42.503c-5.955-17.713-13.753-35.152-23.698-50.599C390.524,139.13,413.144,156.551,430.955,178.087z
			 M372.509,278.261h-66.422v-66.783h57.282C368.4,232.196,371.508,254.757,372.509,278.261z M352.958,178.087h-46.871V115.46
			C328.196,126.396,343.909,154.918,352.958,178.087z M214.028,127.488c-9.946,15.448-17.745,32.888-23.698,50.599h-42.503
			C165.639,156.551,188.259,139.13,214.028,127.488z M125.832,211.478h55.353c-4.584,21.065-7.412,43.565-8.329,66.783h-66.35
			C108.666,254.403,115.396,231.843,125.832,211.478z M125.832,378.435c-10.436-20.364-17.165-42.924-19.326-66.783h66.35
			c0.917,23.218,3.745,45.717,8.329,66.783H125.832z M147.828,411.826h42.503c5.955,17.713,13.753,35.152,23.698,50.599
			C188.259,450.783,165.639,433.362,147.828,411.826z M272.696,474.453c-22.109-10.936-37.822-39.457-46.871-62.626h46.871V474.453z
			 M272.696,378.435h-57.282c-5.031-20.718-8.14-43.278-9.14-66.783h66.422V378.435z M272.696,278.261h-66.422
			c1.001-23.504,4.109-46.064,9.141-66.783h57.281V278.261z M272.696,178.087h-46.871c9.03-23.121,24.759-51.689,46.871-62.627
			V178.087z M289.391,77.913c-12.275,0-22.261-9.986-22.261-22.261c0-12.275,9.986-22.261,22.261-22.261s22.261,9.986,22.261,22.261
			C311.652,67.927,301.666,77.913,289.391,77.913z M306.087,474.453v-62.626h46.871C343.928,434.947,328.2,463.515,306.087,474.453z
			 M306.087,378.435v-66.783h66.422c-1.001,23.504-4.109,46.064-9.141,66.783H306.087z M364.754,462.425
			c9.946-15.447,17.744-32.888,23.698-50.599h42.503C413.144,433.362,390.524,450.783,364.754,462.425z M452.951,378.435h-55.353
			c4.583-21.065,7.412-43.565,8.329-66.783h66.35C470.116,335.51,463.387,358.071,452.951,378.435z"/>
	</g>
</g>
<g>
	<g>
		<path d="M89.044,77.913H72.348V61.217c0-9.22-7.475-16.696-16.696-16.696c-9.22,0-16.696,7.475-16.696,16.696v16.696H22.261
			c-9.22,0-16.696,7.475-16.696,16.696s7.475,16.696,16.696,16.696h16.696V128c0,9.22,7.475,16.696,16.696,16.696
			c9.22,0,16.696-7.475,16.696-16.696v-16.696h16.696c9.22,0,16.696-7.475,16.696-16.696S98.264,77.913,89.044,77.913z"/>
	</g>
</g>
</svg>