<?xml version='1.0' encoding='iso-8859-1'?>
<!DOCTYPE svg PUBLIC '-//W3C//DTD SVG 1.1//EN' 'http://www.w3.org/Graphics/SVG/1.1/DTD/svg11.dtd'>

<svg fill="#000000" height="800px" width="800px" version="1.1" xmlns="http://www.w3.org/2000/svg" viewBox="0 0 247.199 247.199" xmlns:xlink="http://www.w3.org/1999/xlink" enable-background="new 0 0 247.199 247.199">
  <g>
    <path d="m154.965,134.222c-1.331-2.352-3.825-3.806-6.527-3.806h-49.676c-2.703,0-5.196,1.454-6.527,3.806l-40.186,71.014c-1.314,2.322-1.295,5.167 0.048,7.472 1.344,2.305 3.811,3.722 6.479,3.722h130.047c2.668,0 5.135-1.418 6.479-3.722 1.344-2.305 1.362-5.15 0.048-7.472l-40.185-71.014zm-83.527,67.208l31.697-56.014h40.929l31.697,56.014h-104.323z"/>
    <path d="m247.199,52.01c0-11.712-9.53-21.24-21.244-21.24-11.713,0-21.242,9.528-21.242,21.24 0,3.375 0.812,6.557 2.218,9.394-0.876,1.228-1.398,2.727-1.398,4.35v13.328c-26.055,10.341-53.59,15.586-81.93,15.586-28.646,0-56.46-5.356-82.758-15.915v-12.999c0-1.313-0.339-2.545-0.932-3.619 1.64-3.012 2.572-6.461 2.572-10.125 0-11.712-9.529-21.24-21.242-21.24-11.713-7.10543e-15-21.243,9.528-21.243,21.24 0,3.124 0.695,6.082 1.911,8.756-1.185,1.326-1.911,3.07-1.911,4.988v143.176c0,4.142 3.358,7.5 7.5,7.5h25.846c4.142,0 7.5-3.358 7.5-7.5v-114.095c26.421,9.842 54.206,14.833 82.758,14.833 28.249,0 55.754-4.887 81.93-14.527v113.789c0,4.142 3.358,7.5 7.5,7.5h25.846c4.142,0 7.5-3.358 7.5-7.5v-143.176c0-1.623-0.521-3.123-1.398-4.35 1.405-2.837 2.217-6.019 2.217-9.394zm-225.955-6.24c3.442,0 6.242,2.799 6.242,6.24 0,3.443-2.8,6.244-6.242,6.244-3.443,0-6.244-2.801-6.244-6.244 0-3.441 2.801-6.24 6.244-6.24zm4.602,155.66h-10.846v-128.176h10.846v128.176zm200.109-155.66c3.443-7.10543e-15 6.244,2.799 6.244,6.24 0,3.443-2.801,6.244-6.244,6.244-3.442,0-6.242-2.801-6.242-6.244-2.84217e-14-3.441 2.8-6.24 6.242-6.24zm5.424,155.66h-10.846v-117.27c0-0.027 0-0.055 0-0.082v-10.824h10.846v128.176z"/>
  </g>
</svg>