<svg width="35" height="36" viewBox="0 0 35 36" fill="none" xmlns="http://www.w3.org/2000/svg">
<path d="M30.2203 27.4246C30.2203 29.4119 28.61 31.0222 26.6226 31.0222H7.91485C5.92823 31.0222 4.3172 29.4119 4.3172 27.4246V8.71679C4.3172 6.72945 5.92823 5.11914 7.91485 5.11914H26.6226C28.61 5.11914 30.2203 6.72945 30.2203 8.71679V27.4246Z" fill="#1976D2"/>
<path d="M25.8577 13.7832C25.8908 13.6746 25.9067 13.5738 25.9023 13.4839C25.8915 13.2234 25.7124 13.0342 25.2907 13.0342H23.407C22.9314 13.0342 22.7119 13.322 22.5839 13.6105C22.5839 13.6105 21.4096 16.0274 20.0562 17.6212C19.6172 18.0824 19.3942 18.0709 19.1567 18.0709C19.0294 18.0709 18.7078 17.9169 18.7078 17.4945V13.7638C18.7078 13.2644 18.5833 13.0342 18.1811 13.0342H14.836C14.5431 13.0342 14.3906 13.2644 14.3906 13.4954C14.3906 13.9753 15.0367 14.0904 15.1101 15.4353V18.0421C15.1101 18.6753 15 18.7904 14.7626 18.7904C14.1222 18.7904 12.8616 16.6318 12.0176 13.8026C11.8348 13.2457 11.652 13.0342 11.1764 13.0342H9.27472C8.72572 13.0342 8.63434 13.3033 8.63434 13.5911C8.63434 14.1099 9.06606 16.9146 11.4225 20.1395C13.1314 22.478 15.3828 23.8271 17.3759 23.8271C18.5833 23.8271 18.707 23.5199 18.707 23.04V20.9015C18.7078 20.3252 18.8394 20.2295 19.2237 20.2295C19.4978 20.2295 20.0569 20.4094 21.1362 21.6685C22.381 23.1206 22.6069 23.8271 23.3207 23.8271H25.2044C25.6419 23.8271 25.893 23.6437 25.9031 23.2875C25.9052 23.1968 25.8923 23.0954 25.8628 22.9824C25.7232 22.568 25.0828 21.5549 24.2841 20.5892C23.8416 20.0546 23.4049 19.5251 23.2041 19.2372C23.0696 19.0495 23.0185 18.9171 23.0249 18.7904C23.0314 18.6573 23.1005 18.5307 23.2041 18.3537C23.1854 18.3537 25.6203 14.9352 25.8577 13.7832Z" fill="white"/>
</svg>
