<svg width="35" height="35" viewBox="0 0 35 35" fill="none" xmlns="http://www.w3.org/2000/svg">
<path d="M4.29222 28.8042H30.9148C32.3057 28.8042 33.4332 27.7049 33.4332 26.3488V8.10872C33.4332 6.75264 32.3057 5.65332 30.9148 5.65332H4.29222C2.90137 5.65332 1.77386 6.75264 1.77386 8.10872V26.3488C1.77386 27.7049 2.90137 28.8042 4.29222 28.8042Z" fill="#E0E0E0"/>
<path d="M19.0426 28.8042H30.9148C32.3057 28.8042 33.4332 27.7049 33.4332 26.3488V8.10872C33.4332 6.75264 32.3057 5.65332 30.9148 5.65332H4.29222C2.90137 5.65332 1.77386 6.75264 1.77386 8.10872L19.0426 28.8042Z" fill="#D9D9D9"/>
<path d="M5.18799 28.8037H30.9148C32.3056 28.8037 33.4331 27.7044 33.4331 26.3483V8.45898L5.18799 28.8037Z" fill="#EEEEEE"/>
<path d="M18.8591 28.8037H30.9148C32.3056 28.8037 33.4332 27.7044 33.4332 26.3483V8.45898L13.8411 22.5712L18.8591 28.8037Z" fill="#E0E0E0"/>
<path d="M30.9148 7.05642H4.29222C2.90137 7.05642 1.77386 6.75265 1.77386 8.10873V26.3488C1.77386 27.7049 2.90137 28.8042 4.29222 28.8042H5.37152V8.81028H29.8355V28.8042H30.9148C32.3057 28.8042 33.4332 27.7049 33.4332 26.3488V8.10873C33.4332 6.75265 32.3057 7.05642 30.9148 7.05642Z" fill="#CA3737"/>
<path d="M30.9148 5.65332H17.6035H4.29222C2.90137 5.65332 1.77386 6.73089 1.77386 8.10872C1.77386 8.95478 2.86611 9.6928 2.86611 9.6928L17.6035 19.8638L32.3409 9.6935C32.3409 9.6935 33.4332 8.95478 33.4332 8.10942C33.4332 6.73089 32.3057 5.65332 30.9148 5.65332Z" fill="#F5F5F5"/>
<path d="M31.4516 5.71094L17.6035 15.1242L3.75545 5.71094C2.62291 5.94736 1.77386 6.91408 1.77386 8.10881C1.77386 8.95487 2.86611 9.69289 2.86611 9.69289L17.6035 19.8638L32.3409 9.69359C32.3409 9.69359 33.4332 8.95487 33.4332 8.10951C33.4332 6.91408 32.5841 5.94736 31.4516 5.71094Z" fill="#E84F4B"/>
</svg>
