<svg width="36" height="36" viewBox="0 0 36 36" fill="none" xmlns="http://www.w3.org/2000/svg">
<path d="M4.39258 31.9596L6.33099 24.883C5.13513 22.8122 4.50626 20.4622 4.50698 18.0554C4.51058 10.5255 10.6381 4.39941 18.1687 4.39941C21.8232 4.40085 25.2525 5.82336 27.832 8.40432C30.4108 10.986 31.8311 14.4167 31.8297 18.0662C31.8268 25.5961 25.6979 31.7228 18.1687 31.7228H18.1629C15.877 31.7221 13.6299 31.1487 11.6346 30.06L4.39258 31.9596Z" fill="white"/>
<path d="M4.39259 32.3197C4.29761 32.3197 4.20551 32.2823 4.13716 32.2132C4.04722 32.1219 4.01196 31.9887 4.04578 31.8657L5.94462 24.9323C4.76747 22.8414 4.14651 20.4669 4.14795 18.0565C4.15083 10.3273 10.4402 4.04004 18.1687 4.04004C21.9175 4.04148 25.4396 5.5014 28.0867 8.15071C30.7339 10.8007 32.1909 14.3221 32.1895 18.0666C32.1866 25.795 25.8965 32.083 18.1687 32.083C15.8741 32.0823 13.604 31.516 11.5893 30.4446L4.48397 32.3075C4.45375 32.3161 4.42353 32.3197 4.39259 32.3197Z" fill="white"/>
<path d="M18.1687 4.39922C21.8232 4.40066 25.2525 5.82317 27.832 8.40412C30.4108 10.9858 31.8311 14.4165 31.8297 18.066C31.8268 25.5959 25.6978 31.7227 18.1687 31.7227H18.1629C15.877 31.7219 13.6299 31.1485 11.6346 30.0598L4.39256 31.9594L6.33097 24.8828C5.13511 22.812 4.50624 20.462 4.50696 18.0552C4.51056 10.5253 10.6381 4.39922 18.1687 4.39922ZM18.1687 3.67969C10.2423 3.67969 3.79103 10.1281 3.78743 18.0552C3.78671 20.4778 4.39831 22.8652 5.55819 24.9785L3.69821 31.7701C3.63057 32.0184 3.69965 32.2832 3.88097 32.4659C4.01768 32.6041 4.2026 32.6796 4.39256 32.6796C4.45372 32.6796 4.51488 32.6717 4.57532 32.6559L11.5454 30.8283C13.5802 31.8845 15.8611 32.4422 18.1629 32.4429C26.095 32.4429 32.5463 25.9938 32.5499 18.0667C32.5514 14.2251 31.0569 10.6131 28.3421 7.89613C25.6259 5.17847 22.0131 3.68113 18.1687 3.67969Z" fill="#CFD8DC"/>
<path d="M26.2001 10.0346C24.0559 7.88896 21.2058 6.70677 18.1723 6.70605C11.9095 6.70605 6.81593 11.7974 6.81305 18.0559C6.81233 20.2008 7.41242 22.2889 8.54928 24.0971L8.81982 24.5267L7.67217 28.715L11.9699 27.5883L12.3851 27.8343C14.1278 28.869 16.1266 29.4159 18.1644 29.4166H18.1687C24.4271 29.4166 29.5207 24.3245 29.5229 18.0653C29.5236 15.0325 28.3443 12.1802 26.2001 10.0346Z" fill="#40C351"/>
<path fill-rule="evenodd" clip-rule="evenodd" d="M14.7538 12.347C14.4984 11.7785 14.2293 11.767 13.9854 11.757C13.786 11.7483 13.5587 11.749 13.3313 11.749C13.1039 11.749 12.7341 11.8347 12.4211 12.1764C12.1081 12.5182 11.226 13.3435 11.226 15.0229C11.226 16.7023 12.4492 18.3255 12.6197 18.5529C12.7902 18.7803 14.9812 22.3369 18.4508 23.7055C21.3339 24.8423 21.921 24.6164 22.547 24.5596C23.173 24.5027 24.5668 23.7343 24.851 22.937C25.1352 22.1398 25.1352 21.4569 25.0503 21.3145C24.9647 21.172 24.7373 21.0871 24.3962 20.9159C24.0552 20.7446 22.3765 19.9193 22.0635 19.8056C21.7505 19.6919 21.5231 19.6351 21.2951 19.9769C21.0677 20.3179 20.4136 21.0871 20.2143 21.3145C20.015 21.5426 19.8157 21.5713 19.4746 21.4001C19.1336 21.2288 18.0341 20.8691 16.7296 19.7063C15.7151 18.8019 15.0301 17.6844 14.8308 17.3427C14.6315 17.0016 14.8092 16.8167 14.9805 16.6462C15.1337 16.4929 15.3215 16.2475 15.4928 16.0482C15.6633 15.8489 15.7201 15.7065 15.8338 15.4791C15.9475 15.251 15.8907 15.0517 15.805 14.8812C15.7209 14.7099 15.0574 13.0219 14.7538 12.347Z" fill="white"/>
</svg>
