<svg width="35" height="36" viewBox="0 0 35 36" fill="none" xmlns="http://www.w3.org/2000/svg">
<path d="M17.7137 3.67969C13.897 3.67969 10.2367 5.19584 7.53797 7.8946C4.83921 10.5934 3.32306 14.2537 3.32306 18.0703C3.32306 21.8869 4.83921 25.5472 7.53797 28.246C10.2367 30.9447 13.897 32.4609 17.7137 32.4609C21.5303 32.4609 25.1906 30.9447 27.8894 28.246C30.5881 25.5472 32.1043 21.8869 32.1043 18.0703C32.1043 14.2537 30.5881 10.5934 27.8894 7.8946C25.1906 5.19584 21.5303 3.67969 17.7137 3.67969Z" fill="#29B6F6"/>
<path d="M24.873 11.5945L22.1776 25.3563C22.1776 25.3563 22.0618 25.9851 21.2818 25.9851C20.8674 25.9851 20.6537 25.788 20.6537 25.788L14.8154 20.9434L11.9589 19.5036L8.29287 18.5286C8.29287 18.5286 7.64026 18.3401 7.64026 17.8005C7.64026 17.3508 8.31158 17.1364 8.31158 17.1364L23.6491 11.0434C23.6491 11.0434 24.1175 10.8743 24.4593 10.875C24.6694 10.875 24.909 10.9649 24.909 11.2348C24.909 11.4146 24.873 11.5945 24.873 11.5945Z" fill="white"/>
<path d="M16.9941 22.7513L14.529 25.179C14.529 25.179 14.4218 25.2617 14.2786 25.2653C14.229 25.2668 14.1757 25.2588 14.121 25.2344L14.8147 20.9424L16.9941 22.7513Z" fill="#B0BEC5"/>
<path d="M21.9568 13.8939C21.8352 13.7356 21.6107 13.7068 21.4524 13.827L11.9575 19.5091C11.9575 19.5091 13.4728 23.7486 13.7038 24.4825C13.9354 25.2171 14.1211 25.2344 14.1211 25.2344L14.8147 20.9424L21.8891 14.3976C22.0474 14.2774 22.0769 14.0522 21.9568 13.8939Z" fill="#CFD8DC"/>
</svg>
